<?xml version="1.0" encoding="utf-8"?>
<!-- Generator: Adobe Illustrator 19.1.0, SVG Export Plug-In . SVG Version: 6.00 Build 0)  -->
<svg version="1.1" id="レイヤー_1" xmlns="http://www.w3.org/2000/svg" xmlns:xlink="http://www.w3.org/1999/xlink" x="0px"
	 y="0px" viewBox="-4 42 250 100" style="enable-background:new -4 42 250 100;" xml:space="preserve">
<style type="text/css">
	.st0{fill:#B2AFAF;}
	.st1{fill:#663C17;}
</style>
<g>
	<path class="st0" d="M55.8,67.3c0,1-1,2.5-3.1,4.5s-4.6,3.8-7.7,5.6c-0.4,1.2-1,3.5-1.7,6.7c-1.2,5.1-2.3,8.7-3.4,10.9
		c-1,2.1-2.7,4.3-5.1,6.5c-6.8,6.4-14.4,9.6-22.8,9.6c-2.4,0-4.5-0.4-6.4-1.2c-1,2-1.5,3.7-1.5,5.2c0,1.9,0.6,3.6,1.9,5.2
		c0.1,0.1,0.2,0.3,0.2,0.5s-0.1,0.3-0.3,0.3c-0.5,0-1-0.7-1.6-2c-0.6-1.4-0.9-2.6-0.9-3.8c0-1.7,0.6-3.6,1.7-5.6
		c-4.5-2.3-6.8-6.4-6.8-12.1c0-3.7,1.1-7.3,3.3-11c2.2-3.6,5.2-6.9,9.2-9.8c5-3.7,10-5.5,14.9-5.5c2.7,0,4.8,0.8,6.4,2.3
		s2.4,3.5,2.4,6.1c0,1.4-0.2,2.8-0.6,4.3c3.2-2.1,6-3.9,8.5-5.4c1.6-3.4,3.5-6.3,5.9-8.8s4.4-3.7,6.2-3.7
		C55.3,66,55.8,66.4,55.8,67.3z M33.7,79.5c0-2.3-0.7-4.1-2.2-5.5c-1.4-1.4-3.4-2.1-5.7-2.1c-5.8,0-11.5,3-17,9.1S0.6,93.4,0.6,99.9
		c0,4.3,1.6,7.3,4.7,9.1c1.5-2.4,3.6-5.1,6.4-8c-1.4-1.2-2.2-2.7-2.2-4.4c0-1.3,0.4-2.4,1.2-3.3c0.8-0.9,1.8-1.4,3-1.4
		c1.5,0,2.2,0.7,2.2,2c0,0.7-0.3,1.3-0.8,1.8s-1.2,0.8-1.9,0.8c-1.1,0-1.6-0.5-1.6-1.5c0-0.3,0.1-0.7,0.3-1c0.1-0.3,0.1-0.4,0.1-0.5
		c0-0.1-0.1-0.2-0.2-0.2c-0.4,0-0.8,0.4-1.1,1.2c-0.4,0.8-0.6,1.6-0.6,2.3c0,1.4,0.7,2.7,2,3.8c4.4-4.6,11.3-10,20.7-16.1
		C33.5,82.5,33.7,80.9,33.7,79.5z M41.8,79.4c-2.5,1.6-5.3,3.4-8.3,5.5c-1.4,4.6-3.9,8.7-7.5,12.1c-3.6,3.5-7,5.2-10.3,5.2
		c-1,0-2.1-0.3-3.3-0.8c-2.5,2.5-4.6,5.2-6.3,8c1.8,0.8,3.8,1.2,6.1,1.2c4.1,0,8-1.2,11.9-3.5c3.8-2.3,7.1-5.5,9.8-9.6
		c1.3-1.9,2.3-3.7,3-5.3c0.7-1.6,1.9-4.7,3.6-9.3C40.8,81.8,41.3,80.6,41.8,79.4z M32.6,85.3l-2.2,1.5c-8.2,5.7-14.1,10.4-17.7,14.1
		c0.9,0.5,1.9,0.7,2.9,0.7c3,0,6.2-1.6,9.6-4.8C28.5,93.7,31,89.8,32.6,85.3z M55.2,67.3c0-0.5-0.3-0.8-0.9-0.8c-1.5,0-3.1,1-4.9,3
		c-1.8,2-3.2,4.4-4.2,7.1c2.9-1.8,5.2-3.5,7.1-5.3C54.3,69.6,55.2,68.2,55.2,67.3z"/>
	<path class="st0" d="M62,99.6c0,0.3-0.6,1.2-1.9,2.4c-1.9,1.9-3.7,2.9-5.3,2.9c-0.7,0-1.3-0.1-1.8-0.4c-2.9,4-5.6,6.1-8.1,6.1
		c-1.3,0-2.4-0.5-3.3-1.6c-0.9-1.1-1.4-2.4-1.4-3.9c0-3.3,2.2-6.6,6.6-9.7c3.1-2.2,5.6-3.3,7.6-3.3c1.9,0,2.8,1,2.8,3
		c0,2.5-1.3,5.5-3.9,9c0.4,0.3,0.9,0.4,1.5,0.4c1,0,2.1-0.5,3.4-1.4c1.3-0.9,2.4-2,3.2-3.3c0.2-0.3,0.4-0.5,0.5-0.5
		C62,99.5,62,99.5,62,99.6z M56.8,95.2c0-1.8-0.8-2.6-2.4-2.6c-2,0-4.4,1.9-7.2,5.7s-4.3,7-4.3,9.6c0,1.5,0.7,2.3,2.2,2.3
		c2.3,0,4.9-1.9,7.7-5.8c-0.6-0.7-0.9-1.4-0.9-2.2c0-1.1,0.4-2.2,1.3-3.3c0.8-1.1,1.7-1.7,2.5-1.7c0.3,0,0.6,0.2,0.7,0.7
		C56.6,97,56.8,96.1,56.8,95.2z"/>
	<path class="st0" d="M79.2,76.5c-9.1,15.2-14.5,24.1-16,26.8c-1.5,2.7-2.2,4.5-2.2,5.4c0,1,0.4,1.5,1.2,1.5
		c1.8,0,5.2-3.5,10.1-10.4c0.1-0.2,0.2-0.3,0.4-0.3c0.1,0,0.1,0.1,0.1,0.2c0,0.1-0.1,0.3-0.3,0.5l-1.4,1.9c-4.1,5.7-7.2,8.5-9.1,8.5
		c-0.9,0-1.7-0.4-2.3-1.1c-0.6-0.7-0.9-1.6-0.9-2.7c0-1.2,0.3-2.4,0.8-3.5c0.6-1.1,2.4-4.4,5.7-9.7c3.9-6.5,7.2-12.2,9.9-17
		c0.7,0.2,1.2,0.3,1.7,0.3C77.8,76.9,78.5,76.8,79.2,76.5z"/>
	<path class="st0" d="M83.9,99.6c0,0.1-0.1,0.2-0.3,0.5l-1.4,1.9c-4.1,5.7-7.2,8.5-9.3,8.5c-1,0-1.9-0.4-2.6-1.1s-1-1.6-1-2.7
		c0-1.3,0.8-3.2,2.3-5.7l5.1-8.6c0.7,0.2,1.2,0.2,1.6,0.2c0.6,0,1.4-0.1,2.5-0.2l-7.4,12.2c-1.1,1.8-1.6,3.1-1.6,4.1
		s0.5,1.5,1.5,1.5c1.9,0,5.3-3.5,10.2-10.4c0.1-0.2,0.2-0.3,0.3-0.3C83.9,99.4,83.9,99.5,83.9,99.6z M83.5,86.2c0,0.8-0.3,1.5-1,2.1
		c-0.6,0.7-1.3,1-2.1,1c-1,0-1.5-0.5-1.5-1.5c0-0.7,0.3-1.4,1-2.1s1.4-1,2.1-1C83,84.8,83.5,85.2,83.5,86.2z"/>
	<path class="st0" d="M113.6,76.9c-8.1,13-13.3,21.2-15.4,24.8c-2.1,3.7-3.2,6-3.2,6.9c0,1,0.4,1.5,1.3,1.5c2,0,5.3-3.5,10.1-10.4
		c0.1-0.2,0.3-0.3,0.4-0.3s0.2,0.1,0.2,0.2s-0.1,0.2-0.3,0.5l-1.4,1.9c-4.1,5.7-7.2,8.5-9.1,8.5c-1,0-1.8-0.4-2.5-1.1
		c-0.6-0.8-0.9-1.7-0.9-2.9c0-1.2,0.4-2.5,1.2-4.1c-3.8,5.4-6.6,8.1-8.5,8.1c-1.1,0-2.1-0.5-2.9-1.5s-1.2-2.2-1.2-3.7
		c0-3.6,2.2-6.8,6.7-9.7c3.5-2.3,6.3-3.5,8.3-3.5c1.3,0,2,0.7,2,2c0,0.6-0.2,1.3-0.6,2.1l11.6-19.5c0.7,0.2,1.4,0.3,2.1,0.3
		C111.8,77,112.4,77,113.6,76.9z M97.9,94.4c0-1.2-0.5-1.7-1.6-1.7c-2,0-4.5,2-7.7,5.9c-3.2,3.9-4.8,7.1-4.8,9.4
		c0,1.5,0.6,2.2,1.8,2.2c1.7,0,4.7-3,9-9.1C96.8,97.8,97.9,95.6,97.9,94.4z"/>
	<path class="st0" d="M179.1,67.3c0,1-1,2.5-3.1,4.5s-4.6,3.8-7.7,5.6c-0.4,1.2-1,3.5-1.7,6.7c-1.2,5.1-2.3,8.7-3.4,10.9
		c-1,2.1-2.7,4.3-5.1,6.5c-6.8,6.4-14.4,9.6-22.8,9.6c-2.4,0-4.5-0.4-6.4-1.2c-1,2-1.5,3.7-1.5,5.2c0,1.9,0.6,3.6,1.9,5.2
		c0.1,0.1,0.2,0.3,0.2,0.5s-0.1,0.3-0.3,0.3c-0.5,0-1-0.7-1.6-2c-0.6-1.4-0.9-2.6-0.9-3.8c0-1.7,0.6-3.6,1.7-5.6
		c-4.5-2.3-6.8-6.4-6.8-12.1c0-3.7,1.1-7.3,3.3-11c2.2-3.6,5.2-6.9,9.2-9.8c5-3.7,10-5.5,14.9-5.5c2.7,0,4.8,0.8,6.4,2.3
		s2.4,3.5,2.4,6.1c0,1.4-0.2,2.8-0.6,4.3c3.2-2.1,6-3.9,8.5-5.4c1.6-3.4,3.5-6.3,5.9-8.8s4.4-3.7,6.2-3.7
		C178.6,66,179.1,66.4,179.1,67.3z M157,79.5c0-2.3-0.7-4.1-2.2-5.5c-1.4-1.4-3.4-2.1-5.7-2.1c-5.8,0-11.5,3-17,9.1
		s-8.2,12.4-8.2,18.9c0,4.3,1.6,7.3,4.7,9.1c1.5-2.4,3.6-5.1,6.4-8c-1.4-1.2-2.2-2.7-2.2-4.4c0-1.3,0.4-2.4,1.2-3.3
		c0.8-0.9,1.8-1.4,3-1.4c1.5,0,2.2,0.7,2.2,2c0,0.7-0.3,1.3-0.8,1.8s-1.2,0.8-1.9,0.8c-1.1,0-1.6-0.5-1.6-1.5c0-0.3,0.1-0.7,0.3-1
		c0.1-0.3,0.1-0.4,0.1-0.5c0-0.1-0.1-0.2-0.2-0.2c-0.4,0-0.8,0.4-1.1,1.2c-0.3,0.8-0.6,1.6-0.6,2.3c0,1.4,0.7,2.7,2,3.8
		c4.4-4.6,11.3-10,20.7-16.1C156.7,82.5,157,80.9,157,79.5z M165.1,79.4c-2.5,1.6-5.3,3.4-8.3,5.5c-1.4,4.6-3.9,8.7-7.5,12.1
		c-3.6,3.5-7,5.2-10.3,5.2c-1,0-2.1-0.3-3.3-0.8c-2.5,2.5-4.6,5.2-6.3,8c1.8,0.8,3.8,1.2,6.1,1.2c4.1,0,8-1.2,11.9-3.5
		c3.8-2.3,7.1-5.5,9.8-9.6c1.3-1.9,2.3-3.7,3-5.3c0.7-1.6,1.9-4.7,3.6-9.3C164.1,81.8,164.6,80.6,165.1,79.4z M155.9,85.3l-2.2,1.5
		c-8.2,5.7-14.1,10.4-17.7,14.1c0.9,0.5,1.9,0.7,2.9,0.7c3,0,6.2-1.6,9.6-4.8C151.8,93.7,154.3,89.8,155.9,85.3z M178.5,67.3
		c0-0.5-0.3-0.8-0.9-0.8c-1.5,0-3.1,1-4.9,3c-1.8,2-3.2,4.4-4.2,7.1c2.9-1.8,5.2-3.5,7.1-5.3C177.6,69.6,178.5,68.2,178.5,67.3z"/>
	<path class="st0" d="M182.4,99.7c0,0.1-0.2,0.3-0.6,0.8l-1.4,1.8c-4.5,5.5-8.4,8.3-11.6,8.3c-1.5,0-2.8-0.5-3.8-1.6
		s-1.5-2.5-1.5-4.1c0-3.9,2.7-7.3,8.2-10.3c2.9-1.6,5.2-2.3,7-2.3c0.8,0,1.5,0.2,2,0.7c0.6,0.5,0.8,1,0.8,1.7c0,1.6-1,2.9-3.1,4
		c-2,1.1-5.4,2.1-10.2,3.1c-1.5,2.2-2.2,4.1-2.2,5.6c0,1.9,1,2.8,3,2.8c3.4,0,7.6-3.4,12.6-10.1c0.3-0.3,0.5-0.5,0.6-0.5
		C182.4,99.5,182.4,99.6,182.4,99.7z M179.7,93.6c0-0.7-0.4-1-1.1-1c-1.2,0-2.7,0.8-4.5,2.4c-1.9,1.6-3.7,3.7-5.5,6.2
		c3.1-0.8,5.8-1.9,8-3.4C178.6,96.3,179.7,94.9,179.7,93.6z"/>
	<path class="st0" d="M198.8,99.7c0,0.1-0.2,0.3-0.6,0.8l-1.4,1.8c-4.5,5.5-8.4,8.3-11.6,8.3c-1.5,0-2.8-0.5-3.8-1.6
		s-1.5-2.5-1.5-4.1c0-3.9,2.7-7.3,8.2-10.3c2.9-1.6,5.2-2.3,7-2.3c0.8,0,1.5,0.2,2,0.7c0.6,0.5,0.8,1,0.8,1.7c0,1.6-1,2.9-3.1,4
		c-2,1.1-5.4,2.1-10.2,3.1c-1.5,2.2-2.2,4.1-2.2,5.6c0,1.9,1,2.8,3,2.8c3.4,0,7.6-3.4,12.6-10.1c0.3-0.3,0.5-0.5,0.6-0.5
		C198.8,99.5,198.8,99.6,198.8,99.7z M196.1,93.6c0-0.7-0.4-1-1.1-1c-1.2,0-2.7,0.8-4.5,2.4c-1.9,1.6-3.7,3.7-5.5,6.2
		c3.1-0.8,5.8-1.9,8-3.4C195.1,96.3,196.1,94.9,196.1,93.6z"/>
	<path class="st0" d="M228.5,76.9c-8.1,13-13.3,21.2-15.4,24.8c-2.1,3.7-3.2,6-3.2,6.9c0,1,0.4,1.5,1.3,1.5c2,0,5.3-3.5,10.1-10.4
		c0.1-0.2,0.3-0.3,0.4-0.3c0.1,0,0.2,0.1,0.2,0.2s-0.1,0.2-0.3,0.5l-1.4,1.9c-4.1,5.7-7.2,8.5-9.1,8.5c-1,0-1.8-0.4-2.5-1.1
		c-0.6-0.8-0.9-1.7-0.9-2.9c0-1.2,0.4-2.5,1.2-4.1c-3.8,5.4-6.6,8.1-8.5,8.1c-1.1,0-2.1-0.5-2.9-1.5c-0.8-1-1.2-2.2-1.2-3.7
		c0-3.6,2.2-6.8,6.7-9.7c3.5-2.3,6.3-3.5,8.3-3.5c1.3,0,2,0.7,2,2c0,0.6-0.2,1.3-0.6,2.1l11.6-19.5c0.7,0.2,1.4,0.3,2.1,0.3
		C226.6,77,227.3,77,228.5,76.9z M212.8,94.4c0-1.2-0.5-1.7-1.6-1.7c-2,0-4.5,2-7.7,5.9c-3.2,3.9-4.8,7.1-4.8,9.4
		c0,1.5,0.6,2.2,1.8,2.2c1.7,0,4.7-3,9-9.1C211.6,97.8,212.8,95.6,212.8,94.4z"/>
</g>
<g>
	<path class="st1" d="M53.2,93h-8.8v2.9h8.4c1.3,0,2.2,0.2,2.6,0.7c0.5,0.4,0.7,1.3,0.7,2.5v1.9c0,1.3-0.2,2.1-0.7,2.5
		c-0.5,0.4-1.4,0.7-2.7,0.7h-8.3c-1.3,0-2.2-0.2-2.6-0.7c-0.5-0.4-0.7-1.3-0.7-2.5v-0.4l2.8-0.6v1.6h9.5v-3.1H45
		c-1.3,0-2.2-0.2-2.6-0.6c-0.5-0.4-0.7-1.3-0.7-2.5v-1.5c0-1.2,0.2-2.1,0.7-2.5c0.5-0.4,1.3-0.6,2.6-0.6h7.6c1.2,0,2.1,0.2,2.6,0.6
		c0.5,0.4,0.7,1.2,0.7,2.3V94l-2.8,0.7V93H53.2z"/>
	<path class="st1" d="M61.3,95.7c0-1,0.2-1.7,0.6-2.1c0.4-0.3,1.2-0.5,2.3-0.5h8.5c1.1,0,1.9,0.2,2.3,0.5c0.4,0.3,0.6,1,0.6,2.1v5.8
		c0,1-0.2,1.7-0.6,2.1s-1.2,0.5-2.3,0.5h-8.5c-1.1,0-1.9-0.2-2.3-0.5c-0.4-0.4-0.6-1-0.6-2.1V95.7z M64,102h8.8v-6.9H64V102z"/>
	<path class="st1" d="M80.2,104.1v-11h2.7v8.9h8.6v2.1H80.2z"/>
	<path class="st1" d="M94.5,104.1v-11h2.7v11H94.5z"/>
	<path class="st1" d="M102.1,104.1v-11h7.4c2.2,0,3.8,0.5,4.9,1.4c1.1,1,1.7,2.3,1.7,4c0,3.7-2.4,5.5-7.3,5.5L102.1,104.1
		L102.1,104.1z M104.8,102h3.5c1.8,0,3.1-0.2,3.8-0.7c0.8-0.6,1.3-1.5,1.3-2.9c0-2.2-1.3-3.4-3.8-3.4h-4.7v7H104.8z"/>
	<path class="st1" d="M132.8,93H124v2.9h8.4c1.3,0,2.2,0.2,2.6,0.7s0.7,1.3,0.7,2.5v1.9c0,1.3-0.2,2.1-0.7,2.5
		c-0.5,0.4-1.4,0.7-2.7,0.7H124c-1.3,0-2.2-0.2-2.6-0.7c-0.5-0.4-0.7-1.3-0.7-2.5v-0.4l2.8-0.6v1.6h9.5v-3.1h-8.4
		c-1.3,0-2.2-0.2-2.6-0.6c-0.5-0.4-0.7-1.3-0.7-2.5v-1.5c0-1.2,0.2-2.1,0.7-2.5c0.5-0.4,1.3-0.6,2.6-0.6h7.6c1.2,0,2.1,0.2,2.6,0.6
		c0.5,0.4,0.7,1.2,0.7,2.3V94l-2.8,0.7L132.8,93L132.8,93z"/>
	<path class="st1" d="M141.2,104.1v-11H153V95h-9.1v2.4h5.3v1.9h-5.3v2.7h9.2v2.1H141.2z"/>
	<path class="st1" d="M157,104.1v-11h11.8V95h-9.1v2.4h5.3v1.9h-5.3v2.7h9.2v2.1H157z"/>
	<path class="st1" d="M172.8,104.1v-11h7.4c2.2,0,3.8,0.5,4.9,1.4c1.1,1,1.7,2.3,1.7,4c0,3.7-2.4,5.5-7.3,5.5L172.8,104.1
		L172.8,104.1z M175.5,102h3.5c1.8,0,3.1-0.2,3.8-0.7c0.8-0.6,1.3-1.5,1.3-2.9c0-2.2-1.3-3.4-3.8-3.4h-4.7v7H175.5z"/>
</g>
</svg>
